<svg width="55" height="56" viewBox="0 0 55 56" fill="none" xmlns="http://www.w3.org/2000/svg">
<path d="M14.7142 3.35711C14.0811 3.35711 13.4541 3.48182 12.8691 3.72412C12.2842 3.96642 11.7527 4.32156 11.305 4.76927C10.8572 5.21698 10.5021 5.74849 10.2598 6.33346C10.0175 6.91842 9.89279 7.54538 9.89279 8.17854C9.89279 8.8117 10.0175 9.43865 10.2598 10.0236C10.5021 10.6086 10.8572 11.1401 11.305 11.5878C11.7527 12.0355 12.2842 12.3907 12.8691 12.633C13.4541 12.8753 14.0811 13 14.7142 13C15.9929 13 17.2193 12.492 18.1235 11.5878C19.0277 10.6836 19.5356 9.45726 19.5356 8.17854C19.5356 6.89981 19.0277 5.67346 18.1235 4.76927C17.2193 3.86508 15.9929 3.35711 14.7142 3.35711ZM6.6785 8.17854C6.6785 6.04733 7.52512 4.00342 9.03211 2.49643C10.5391 0.98944 12.583 0.142822 14.7142 0.142822C16.8454 0.142822 18.8893 0.98944 20.3963 2.49643C21.9033 4.00342 22.7499 6.04733 22.7499 8.17854C22.7499 10.3097 21.9033 12.3537 20.3963 13.8606C18.8893 15.3676 16.8454 16.2143 14.7142 16.2143C12.583 16.2143 10.5391 15.3676 9.03211 13.8606C7.52512 12.3537 6.6785 10.3097 6.6785 8.17854ZM0.785645 23.6757C0.785645 21.3293 2.68636 19.4285 5.03279 19.4285H17.0328C16.6254 20.4544 16.3894 21.5403 16.3342 22.6428H5.03279C4.89699 22.6423 4.76243 22.6686 4.63686 22.7203C4.51129 22.772 4.39721 22.8481 4.30118 22.9441C4.20516 23.0401 4.1291 23.1542 4.0774 23.2798C4.02569 23.4053 3.99936 23.5399 3.99993 23.6757V24.5178C3.99993 24.8864 4.00422 27.1171 5.30064 29.2257C6.41493 31.0342 8.63065 32.995 13.3428 33.3121C12.2538 34.0208 11.405 35.0428 10.9085 36.2435C6.61207 35.4485 4.03636 33.3035 2.56422 30.9078C0.785644 28.0214 0.785645 25.0385 0.785645 24.5243V23.6757ZM35.9649 19.4285C36.3635 20.4314 36.6078 21.5135 36.6635 22.6428H47.9671C48.5371 22.6428 48.9999 23.1057 48.9999 23.6757V24.5178C48.9999 24.8114 48.9957 26.2857 48.3421 27.9357C49.3021 28.4814 50.1935 29.1157 51.0164 29.8385C51.7974 28.1745 52.2062 26.3603 52.2142 24.5221V23.6757C52.2148 23.1178 52.1053 22.5652 51.8921 22.0497C51.6788 21.5342 51.366 21.0657 50.9715 20.6712C50.577 20.2767 50.1086 19.9639 49.5931 19.7507C49.0775 19.5374 48.525 19.428 47.9671 19.4285H35.9649ZM34.5356 23.1785C34.5356 24.79 34.0621 26.29 33.2456 27.55C31.5595 28.3929 30.0349 29.5259 28.7414 30.8971C27.1222 31.3674 25.3961 31.3165 23.8075 30.7515C22.2188 30.1866 20.8481 29.1362 19.8895 27.7492C18.9308 26.3622 18.4327 24.7087 18.4658 23.0229C18.4988 21.3372 19.0612 19.7045 20.0735 18.356C21.0858 17.0076 22.4965 16.0118 24.1061 15.5095C25.7156 15.0072 27.4424 15.0239 29.0419 15.5573C30.6414 16.0906 32.0326 17.1136 33.0186 18.4814C34.0045 19.8492 34.5353 21.4924 34.5356 23.1785ZM16.8185 34.4285H26.2106C25.6713 35.451 25.2438 36.5287 24.9356 37.6428H16.8185C16.6827 37.6423 16.5481 37.6686 16.4226 37.7203C16.297 37.772 16.1829 37.8481 16.0869 37.9441C15.9909 38.0401 15.9148 38.1542 15.8631 38.2798C15.8114 38.4053 15.7851 38.5399 15.7856 38.6757V39.5178C15.7856 39.8864 15.7899 42.1171 17.0864 44.2257C18.2435 46.105 20.5878 48.1471 25.6878 48.34C26.1871 49.4864 26.8149 50.5621 27.5521 51.5478C27.2106 51.5635 26.8599 51.5714 26.4999 51.5714C19.8442 51.5714 16.2142 48.94 14.3499 45.91C12.5714 43.0192 12.5714 40.0385 12.5714 39.5221V38.6757C12.5714 36.3293 14.4721 34.4285 16.8185 34.4285ZM38.2856 3.35711C37.6525 3.35711 37.0255 3.48182 36.4406 3.72412C35.8556 3.96642 35.3241 4.32156 34.8764 4.76927C34.4287 5.21698 34.0735 5.74849 33.8312 6.33346C33.5889 6.91842 33.4642 7.54538 33.4642 8.17854C33.4642 8.8117 33.5889 9.43865 33.8312 10.0236C34.0735 10.6086 34.4287 11.1401 34.8764 11.5878C35.3241 12.0355 35.8556 12.3907 36.4406 12.633C37.0255 12.8753 37.6525 13 38.2856 13C39.5644 13 40.7907 12.492 41.6949 11.5878C42.5991 10.6836 43.1071 9.45726 43.1071 8.17854C43.1071 6.89981 42.5991 5.67346 41.6949 4.76927C40.7907 3.86508 39.5644 3.35711 38.2856 3.35711ZM30.2499 8.17854C30.2499 6.04733 31.0965 4.00342 32.6035 2.49643C34.1105 0.98944 36.1544 0.142822 38.2856 0.142822C40.4169 0.142822 42.4608 0.98944 43.9678 2.49643C45.4747 4.00342 46.3214 6.04733 46.3214 8.17854C46.3214 10.3097 45.4747 12.3537 43.9678 13.8606C42.4608 15.3676 40.4169 16.2143 38.2856 16.2143C36.1544 16.2143 34.1105 15.3676 32.6035 13.8606C31.0965 12.3537 30.2499 10.3097 30.2499 8.17854ZM21.6785 23.1785C21.6785 23.8117 21.8032 24.4387 22.0455 25.0236C22.2878 25.6086 22.643 26.1401 23.0907 26.5878C23.5384 27.0355 24.0699 27.3907 24.6549 27.633C25.2398 27.8753 25.8668 28 26.4999 28C27.1331 28 27.7601 27.8753 28.345 27.633C28.93 27.3907 29.4615 27.0355 29.9092 26.5878C30.3569 26.1401 30.7121 25.6086 30.9544 25.0236C31.1967 24.4387 31.3214 23.8117 31.3214 23.1785C31.3214 21.8998 30.8134 20.6735 29.9092 19.7693C29.005 18.8651 27.7787 18.3571 26.4999 18.3571C25.2212 18.3571 23.9949 18.8651 23.0907 19.7693C22.1865 20.6735 21.6785 21.8998 21.6785 23.1785ZM54.3571 41.9285C54.3571 45.6226 52.8896 49.1654 50.2775 51.7775C47.6654 54.3896 44.1226 55.8571 40.4285 55.8571C36.7344 55.8571 33.1916 54.3896 30.5795 51.7775C27.9674 49.1654 26.4999 45.6226 26.4999 41.9285C26.4999 38.2344 27.9674 34.6917 30.5795 32.0795C33.1916 29.4674 36.7344 28 40.4285 28C44.1226 28 47.6654 29.4674 50.2775 32.0795C52.8896 34.6917 54.3571 38.2344 54.3571 41.9285ZM41.4999 33.3571C41.4999 33.0729 41.3871 32.8004 41.1861 32.5995C40.9852 32.3986 40.7127 32.2857 40.4285 32.2857C40.1443 32.2857 39.8718 32.3986 39.6709 32.5995C39.47 32.8004 39.3571 33.0729 39.3571 33.3571V40.8571H31.8571C31.5729 40.8571 31.3004 40.97 31.0995 41.1709C30.8985 41.3719 30.7856 41.6444 30.7856 41.9285C30.7856 42.2127 30.8985 42.4852 31.0995 42.6861C31.3004 42.8871 31.5729 43 31.8571 43H39.3571V50.5C39.3571 50.7841 39.47 51.0566 39.6709 51.2576C39.8718 51.4585 40.1443 51.5714 40.4285 51.5714C40.7127 51.5714 40.9852 51.4585 41.1861 51.2576C41.3871 51.0566 41.4999 50.7841 41.4999 50.5V43H48.9999C49.2841 43 49.5566 42.8871 49.7575 42.6861C49.9585 42.4852 50.0714 42.2127 50.0714 41.9285C50.0714 41.6444 49.9585 41.3719 49.7575 41.1709C49.5566 40.97 49.2841 40.8571 48.9999 40.8571H41.4999V33.3571Z" fill="#292666"/>
</svg>
