<svg width="42" height="48" viewBox="0 0 42 48" fill="none" xmlns="http://www.w3.org/2000/svg">
<path d="M28.3966 39.6778C26.8976 39.6778 25.6191 39.148 24.5611 38.0883C23.5031 37.0285 22.9733 35.7509 22.9715 34.2553C22.9698 32.7598 23.4997 31.4804 24.5611 30.4173C25.6226 29.3541 26.9011 28.8251 28.3966 28.8303C29.8922 28.8354 31.1707 29.3652 32.2321 30.4198C33.2936 31.4744 33.8226 32.7529 33.8191 34.2553C33.8157 35.7577 33.2859 37.0362 32.2296 38.0908C31.1733 39.1454 29.8956 39.6744 28.3966 39.6778ZM4.62985 47.3694C3.45049 47.3694 2.46598 46.9745 1.67631 46.1849C0.886652 45.3952 0.490967 44.4098 0.489258 43.2288V10.4886C0.489258 9.3092 0.884943 8.32469 1.67631 7.53503C2.46768 6.74537 3.45305 6.34968 4.63242 6.34797H9.16785V0.630615H11.9291V6.34797H30.2708V0.630615H32.8346V6.34797H37.3701C38.5494 6.34797 39.5348 6.74366 40.3262 7.53503C41.1175 8.3264 41.5124 9.31177 41.5107 10.4911V43.2288C41.5107 44.4081 41.1158 45.3935 40.3262 46.1849C39.5365 46.9762 38.5503 47.3711 37.3675 47.3694H4.62985ZM4.62985 44.8055H37.3701C37.7632 44.8055 38.1247 44.6414 38.4546 44.3133C38.7844 43.9851 38.9485 43.6227 38.9468 43.2262V20.7465H3.05309V43.2288C3.05309 43.6219 3.21718 43.9834 3.54535 44.3133C3.87352 44.6431 4.23502 44.8072 4.62985 44.8055ZM3.05309 18.1801H38.9468V10.4886C38.9468 10.0954 38.7827 9.73394 38.4546 9.40406C38.1264 9.07418 37.764 8.9101 37.3675 8.91181H4.63242C4.23759 8.91181 3.87523 9.07589 3.54535 9.40406C3.21547 9.73224 3.05139 10.0946 3.05309 10.4911V18.1801Z" fill="#292666"/>
</svg>
