<svg width="16" height="17" viewBox="0 0 16 17" fill="none" xmlns="http://www.w3.org/2000/svg">
<path d="M11.5589 4.01907C11.4007 4.01907 11.246 4.06599 11.1145 4.15389C10.9829 4.2418 10.8804 4.36674 10.8198 4.51292C10.7593 4.6591 10.7434 4.81996 10.7743 4.97514C10.8052 5.13033 10.8814 5.27287 10.9933 5.38475C11.1051 5.49664 11.2477 5.57283 11.4029 5.6037C11.5581 5.63457 11.7189 5.61872 11.8651 5.55817C12.0113 5.49762 12.1362 5.39508 12.2241 5.26353C12.312 5.13197 12.3589 4.97729 12.3589 4.81907C12.3589 4.6069 12.2747 4.40341 12.1246 4.25338C11.9746 4.10335 11.7711 4.01907 11.5589 4.01907ZM14.6256 5.6324C14.6126 5.07927 14.509 4.532 14.3189 4.0124C14.1494 3.56782 13.8856 3.16525 13.5456 2.8324C13.2155 2.49069 12.812 2.22852 12.3656 2.06574C11.8474 1.86984 11.2995 1.76388 10.7456 1.7524C10.0389 1.7124 9.81228 1.7124 7.99894 1.7124C6.18561 1.7124 5.95894 1.7124 5.25228 1.7524C4.69838 1.76388 4.1505 1.86984 3.63228 2.06574C3.18673 2.23017 2.78356 2.49211 2.45228 2.8324C2.11056 3.16252 1.84839 3.56603 1.68561 4.0124C1.48972 4.53063 1.38375 5.0785 1.37228 5.6324C1.33228 6.33907 1.33228 6.56574 1.33228 8.37907C1.33228 10.1924 1.33228 10.4191 1.37228 11.1257C1.38375 11.6796 1.48972 12.2275 1.68561 12.7457C1.84839 13.1921 2.11056 13.5956 2.45228 13.9257C2.78356 14.266 3.18673 14.528 3.63228 14.6924C4.1505 14.8883 4.69838 14.9943 5.25228 15.0057C5.95894 15.0457 6.18561 15.0457 7.99894 15.0457C9.81228 15.0457 10.0389 15.0457 10.7456 15.0057C11.2995 14.9943 11.8474 14.8883 12.3656 14.6924C12.812 14.5296 13.2155 14.2675 13.5456 13.9257C13.8871 13.5941 14.1512 13.1912 14.3189 12.7457C14.509 12.2261 14.6126 11.6789 14.6256 11.1257C14.6256 10.4191 14.6656 10.1924 14.6656 8.37907C14.6656 6.56574 14.6656 6.33907 14.6256 5.6324ZM13.4256 11.0457C13.4208 11.4689 13.3441 11.8882 13.1989 12.2857C13.0925 12.5759 12.9215 12.838 12.6989 13.0524C12.4827 13.2727 12.2211 13.4434 11.9323 13.5524C11.5347 13.6976 11.1155 13.7742 10.6923 13.7791C10.0256 13.8124 9.77894 13.8191 8.02561 13.8191C6.27228 13.8191 6.02561 13.8191 5.35894 13.7791C4.91954 13.7873 4.48201 13.7196 4.06561 13.5791C3.78946 13.4645 3.53985 13.2943 3.33228 13.0791C3.111 12.8649 2.94217 12.6025 2.83894 12.3124C2.67618 11.9092 2.5859 11.4804 2.57228 11.0457C2.57228 10.3791 2.53228 10.1324 2.53228 8.37907C2.53228 6.62574 2.53228 6.37907 2.57228 5.7124C2.57526 5.27977 2.65424 4.85103 2.80561 4.44574C2.92297 4.16434 3.10312 3.91351 3.33228 3.7124C3.53482 3.48318 3.78513 3.30113 4.06561 3.17907C4.47198 3.03243 4.90027 2.95579 5.33228 2.9524C5.99894 2.9524 6.24561 2.9124 7.99894 2.9124C9.75228 2.9124 9.99894 2.9124 10.6656 2.9524C11.0888 2.95726 11.5081 3.0339 11.9056 3.17907C12.2086 3.2915 12.4805 3.4743 12.6989 3.7124C12.9174 3.91719 13.0881 4.16756 13.1989 4.44574C13.3471 4.85169 13.4238 5.28026 13.4256 5.7124C13.4589 6.37907 13.4656 6.62574 13.4656 8.37907C13.4656 10.1324 13.4589 10.3791 13.4256 11.0457ZM7.99894 4.95907C7.32282 4.96039 6.66225 5.16209 6.10071 5.53868C5.53917 5.91528 5.10186 6.44987 4.84403 7.0749C4.5862 7.69994 4.51942 8.38738 4.65214 9.05036C4.78485 9.71333 5.1111 10.3221 5.58966 10.7997C6.06822 11.2774 6.67762 11.6024 7.34085 11.7338C8.00408 11.8653 8.69139 11.7971 9.31592 11.5381C9.94046 11.279 10.4742 10.8407 10.8497 10.2784C11.2252 9.71615 11.4256 9.0552 11.4256 8.37907C11.4265 7.92914 11.3384 7.48347 11.1664 7.06771C10.9945 6.65194 10.742 6.27428 10.4235 5.95644C10.1051 5.6386 9.72691 5.38685 9.31081 5.21569C8.89471 5.04452 8.44887 4.95731 7.99894 4.95907ZM7.99894 10.5991C7.55987 10.5991 7.13065 10.4689 6.76558 10.2249C6.4005 9.981 6.11596 9.63428 5.94793 9.22863C5.7799 8.82297 5.73594 8.37661 5.8216 7.94597C5.90726 7.51533 6.11869 7.11976 6.42916 6.80929C6.73964 6.49882 7.1352 6.28738 7.56584 6.20173C7.99648 6.11607 8.44285 6.16003 8.8485 6.32806C9.25415 6.49608 9.60087 6.78063 9.8448 7.1457C10.0887 7.51078 10.2189 7.93999 10.2189 8.37907C10.2189 8.6706 10.1615 8.95928 10.05 9.22863C9.93839 9.49797 9.77487 9.7427 9.56872 9.94885C9.36257 10.155 9.11784 10.3185 8.8485 10.4301C8.57916 10.5416 8.29048 10.5991 7.99894 10.5991Z" fill="white"/>
</svg>
