<svg width="24" height="23" viewBox="0 0 24 23" fill="none" xmlns="http://www.w3.org/2000/svg">
<path d="M15.3581 15.3824L12.8206 22.3605C12.7585 22.528 12.6465 22.6724 12.4999 22.7744C12.3533 22.8764 12.1789 22.931 12.0003 22.931C11.8217 22.931 11.6473 22.8764 11.5007 22.7744C11.3541 22.6724 11.2421 22.528 11.18 22.3605L8.64249 15.3824C8.59817 15.2621 8.52828 15.1529 8.43764 15.0622C8.347 14.9716 8.23777 14.9017 8.11749 14.8574L1.13936 12.3199C0.971906 12.2577 0.827484 12.1458 0.725498 11.9992C0.623513 11.8525 0.568848 11.6782 0.568848 11.4996C0.568848 11.3209 0.623513 11.1466 0.725498 11C0.827484 10.8533 0.971906 10.7414 1.13936 10.6793L8.11749 8.14175C8.23777 8.09744 8.347 8.02754 8.43764 7.9369C8.52828 7.84626 8.59817 7.73703 8.64249 7.61675L11.18 0.638628C11.2421 0.471173 11.3541 0.326752 11.5007 0.224766C11.6473 0.12278 11.8217 0.0681152 12.0003 0.0681152C12.1789 0.0681152 12.3533 0.12278 12.4999 0.224766C12.6465 0.326752 12.7585 0.471173 12.8206 0.638628L15.3581 7.61675C15.4024 7.73703 15.4723 7.84626 15.563 7.9369C15.6536 8.02754 15.7628 8.09744 15.8831 8.14175L22.8612 10.6793C23.0287 10.7414 23.1731 10.8533 23.2751 11C23.3771 11.1466 23.4317 11.3209 23.4317 11.4996C23.4317 11.6782 23.3771 11.8525 23.2751 11.9992C23.1731 12.1458 23.0287 12.2577 22.8612 12.3199L15.8831 14.8574C15.7628 14.9017 15.6536 14.9716 15.563 15.0622C15.4723 15.1529 15.4024 15.2621 15.3581 15.3824V15.3824Z" fill="#333333"/>
</svg>
