<svg width="38" height="38" viewBox="0 0 38 38" fill="none" xmlns="http://www.w3.org/2000/svg">
<path d="M19.0001 34.8333L15.8334 25.3333H3.16675L6.33342 34.8333H19.0001ZM19.0001 34.8333H25.3334M19.0001 20.5833V19.7916C19.0001 16.8055 19.0001 15.314 18.0722 14.3861C17.1444 13.4583 15.6529 13.4583 12.6667 13.4583C9.68058 13.4583 8.18908 13.4583 7.26125 14.3861C6.33341 15.314 6.33342 16.8055 6.33342 19.7916V20.5833M22.1667 27.7083H31.6668C32.5066 27.7083 33.3121 28.0419 33.9059 28.6358C34.4998 29.2297 34.8334 30.0351 34.8334 30.875V31.6666C34.8334 32.5065 34.4998 33.3119 33.9059 33.9058C33.3121 34.4997 32.5066 34.8333 31.6668 34.8333H30.0834M30.0834 20.5833C30.0834 21.4231 29.7498 22.2286 29.1559 22.8225C28.5621 23.4163 27.7566 23.75 26.9168 23.75C26.0769 23.75 25.2714 23.4163 24.6776 22.8225C24.0837 22.2286 23.7501 21.4231 23.7501 20.5833C23.7501 19.7434 24.0837 18.938 24.6776 18.3441C25.2714 17.7503 26.0769 17.4166 26.9168 17.4166C27.7566 17.4166 28.5621 17.7503 29.1559 18.3441C29.7498 18.938 30.0834 19.7434 30.0834 20.5833ZM15.8334 6.33329C15.8334 7.17315 15.4998 7.9786 14.9059 8.57246C14.3121 9.16633 13.5066 9.49996 12.6667 9.49996C11.8269 9.49996 11.0214 9.16633 10.4276 8.57246C9.83371 7.9786 9.50008 7.17315 9.50008 6.33329C9.50008 5.49344 9.83371 4.68799 10.4276 4.09412C11.0214 3.50026 11.8269 3.16663 12.6667 3.16663C13.5066 3.16663 14.3121 3.50026 14.9059 4.09412C15.4998 4.68799 15.8334 5.49344 15.8334 6.33329Z" stroke="white" stroke-width="1.5" stroke-linecap="round" stroke-linejoin="round"/>
</svg>
