<svg width="63" height="51" viewBox="0 0 63 51" fill="none" xmlns="http://www.w3.org/2000/svg">
<path d="M11.1297 12.537C11.1297 10.3269 12.0076 8.20728 13.5704 6.64448C15.1332 5.08168 17.2529 4.2037 19.463 4.2037C21.6731 4.2037 23.7927 5.08168 25.3555 6.64448C26.9184 8.20728 27.7963 10.3269 27.7963 12.537C27.7963 14.7472 26.9184 16.8668 25.3555 18.4296C23.7927 19.9924 21.6731 20.8704 19.463 20.8704C17.2529 20.8704 15.1332 19.9924 13.5704 18.4296C12.0076 16.8668 11.1297 14.7472 11.1297 12.537ZM19.463 0.5C16.2706 0.5 13.2089 1.76818 10.9515 4.02557C8.69414 6.28295 7.42596 9.34462 7.42596 12.537C7.42596 15.7295 8.69414 18.7911 10.9515 21.0485C13.2089 23.3059 16.2706 24.5741 19.463 24.5741C22.6554 24.5741 25.7171 23.3059 27.9745 21.0485C30.2318 18.7911 31.5 15.7295 31.5 12.537C31.5 9.34462 30.2318 6.28295 27.9745 4.02557C25.7171 1.76818 22.6554 0.5 19.463 0.5ZM40.526 43.6296C42.5185 44.4444 45.026 44.9444 48.1667 44.9444C55.1334 44.9444 58.9852 42.4704 61.0148 39.6333C62.076 38.1458 62.7402 36.4121 62.9445 34.5963C62.9626 34.4276 62.975 34.2584 62.9815 34.0889V33.8333C62.9815 33.1038 62.8378 32.3813 62.5586 31.7073C62.2794 31.0333 61.8702 30.4208 61.3543 29.905C60.8384 29.3891 60.226 28.9799 59.552 28.7007C58.8779 28.4215 58.1555 28.2778 57.4259 28.2778H40.2778C41.1667 29.3519 41.8334 30.6074 42.2223 31.9815H57.4259C57.9171 31.9815 58.3881 32.1766 58.7354 32.5239C59.0827 32.8712 59.2778 33.3422 59.2778 33.8333V34.0333L59.2593 34.2185C59.1202 35.3935 58.6871 36.5145 58 37.4778C56.7889 39.1778 54.1593 41.2407 48.1667 41.2407C45.4556 41.2407 43.4334 40.8185 41.9185 40.2C41.6148 41.237 41.1741 42.4074 40.526 43.6296ZM0.0185547 35.6852C0.0185547 33.7206 0.798975 31.8365 2.18813 30.4474C3.57729 29.0582 5.46139 28.2778 7.42596 28.2778H31.5C33.4646 28.2778 35.3487 29.0582 36.7379 30.4474C38.127 31.8365 38.9074 33.7206 38.9074 35.6852V35.9963L38.9 36.1444L38.863 36.6444C38.6005 39.0447 37.748 41.3426 36.3815 43.3333C33.7852 47.0926 28.7704 50.5 19.463 50.5C10.1556 50.5 5.14078 47.0926 2.54448 43.337C1.17744 41.3453 0.324904 39.046 0.062999 36.6444C0.0418698 36.4289 0.0270487 36.2127 0.0185547 35.9963V35.6852ZM3.72226 35.9074V35.9741L3.74818 36.2815C3.94916 38.0569 4.58248 39.7559 5.59263 41.2296C7.39633 43.837 11.1778 46.7963 19.463 46.7963C27.7482 46.7963 31.5297 43.837 33.3334 41.2296C34.3435 39.7559 34.9768 38.0569 35.1778 36.2815C35.1926 36.1407 35.2 36.0383 35.2 35.9741L35.2037 35.9111V35.6852C35.2037 34.7029 34.8135 33.7608 34.1189 33.0663C33.4244 32.3717 32.4823 31.9815 31.5 31.9815H7.42596C6.44368 31.9815 5.50163 32.3717 4.80705 33.0663C4.11247 33.7608 3.72226 34.7029 3.72226 35.6852V35.9074ZM42.6111 15.3148C42.6111 13.8414 43.1965 12.4283 44.2383 11.3864C45.2802 10.3446 46.6933 9.75926 48.1667 9.75926C49.6401 9.75926 51.0532 10.3446 52.0951 11.3864C53.1369 12.4283 53.7222 13.8414 53.7222 15.3148C53.7222 16.7882 53.1369 18.2013 52.0951 19.2432C51.0532 20.2851 49.6401 20.8704 48.1667 20.8704C46.6933 20.8704 45.2802 20.2851 44.2383 19.2432C43.1965 18.2013 42.6111 16.7882 42.6111 15.3148ZM48.1667 6.05556C45.711 6.05556 43.3559 7.03108 41.6194 8.76753C39.883 10.504 38.9074 12.8591 38.9074 15.3148C38.9074 17.7705 39.883 20.1257 41.6194 21.8621C43.3559 23.5985 45.711 24.5741 48.1667 24.5741C50.6224 24.5741 52.9775 23.5985 54.714 21.8621C56.4504 20.1257 57.4259 17.7705 57.4259 15.3148C57.4259 12.8591 56.4504 10.504 54.714 8.76753C52.9775 7.03108 50.6224 6.05556 48.1667 6.05556Z" fill="#292666"/>
</svg>
