<svg width="10" height="13" viewBox="0 0 10 13" fill="none" xmlns="http://www.w3.org/2000/svg">
<path d="M2.32032 0.480413L3.03474 0.265536C3.4261 0.147522 3.84704 0.175931 4.21899 0.345463C4.59095 0.514995 4.88852 0.814068 5.05617 1.18687L5.60836 2.41492C5.75251 2.73558 5.79265 3.09332 5.72315 3.43796C5.65366 3.78259 5.47801 4.09683 5.22085 4.33656L4.30563 5.18934C4.2789 5.21425 4.26196 5.24791 4.25788 5.28422C4.23095 5.52726 4.39563 6.00048 4.77579 6.65858C5.05128 7.13669 5.30166 7.47278 5.51409 7.66072C5.66285 7.79234 5.74427 7.8205 5.77916 7.81071L7.00965 7.43422C7.34569 7.33143 7.70546 7.33638 8.03855 7.44835C8.37163 7.56033 8.66133 7.77374 8.86702 8.05864L9.65062 9.14588C9.88917 9.47645 9.99967 9.88234 9.96162 10.2882C9.92357 10.6941 9.73954 11.0724 9.4437 11.3528L8.90069 11.867C8.61282 12.1397 8.25926 12.3331 7.87443 12.4284C7.48961 12.5238 7.08665 12.5179 6.70479 12.4113C5.01883 11.9405 3.50735 10.5178 2.15319 8.17251C0.797818 5.82417 0.321539 3.80151 0.761087 2.10393C0.859756 1.72213 1.05511 1.37218 1.32832 1.08782C1.60153 0.80346 1.94277 0.594269 2.32032 0.480413ZM2.58601 1.36012C2.35943 1.42826 2.15423 1.55362 1.99017 1.72411C1.82612 1.89459 1.70875 2.10447 1.64937 2.3335C1.28083 3.76111 1.70263 5.5542 2.94903 7.71337C4.19422 9.86948 5.53429 11.1312 6.95272 11.5273C7.18185 11.5912 7.42362 11.5947 7.6545 11.5374C7.88537 11.4801 8.09747 11.364 8.27014 11.2004L8.81254 10.6861C8.9471 10.5587 9.03083 10.3867 9.04817 10.2022C9.06551 10.0176 9.01528 9.83307 8.90681 9.68277L8.12322 8.59614C8.02971 8.46649 7.89795 8.36937 7.74643 8.31843C7.59491 8.26748 7.43125 8.26526 7.2784 8.31209L6.04485 8.68981C5.3286 8.90285 4.67907 8.32678 3.98118 7.11772C3.5098 6.30351 3.29063 5.67296 3.34573 5.1826C3.37389 4.92793 3.49265 4.69285 3.67937 4.51777L4.59459 3.665C4.71142 3.55596 4.79119 3.41309 4.82271 3.25641C4.85422 3.09974 4.83588 2.93713 4.77028 2.79141L4.2187 1.56337C4.14249 1.39391 4.00722 1.25797 3.83813 1.18092C3.66905 1.10387 3.47771 1.09097 3.29982 1.14463L2.58601 1.36012Z" fill="white"/>
</svg>
