<svg width="13" height="14" viewBox="0 0 13 14" fill="none" xmlns="http://www.w3.org/2000/svg">
<path d="M9.58861 8.64015C9.46003 8.57586 8.62425 8.19012 8.49566 8.12583C8.36708 8.06153 8.2385 8.06153 8.10992 8.19012C7.98134 8.3187 7.72417 8.70444 7.59559 8.83302C7.5313 8.96161 7.40272 8.96161 7.27414 8.89732C6.8241 8.70444 6.37407 8.44728 5.98832 8.12583C5.66687 7.80437 5.34541 7.41863 5.08825 7.03288C5.02396 6.9043 5.08825 6.77572 5.15254 6.71143C5.21683 6.64714 5.28112 6.51855 5.40971 6.45426C5.474 6.38997 5.53829 6.26139 5.53829 6.1971C5.60258 6.13281 5.60258 6.00423 5.53829 5.93994C5.474 5.87565 5.15254 5.10416 5.02396 4.7827C4.95967 4.33267 4.83109 4.33267 4.70251 4.33267H4.38105C4.25247 4.33267 4.0596 4.46125 3.99531 4.52554C3.60956 4.91128 3.41669 5.36132 3.41669 5.87565C3.48098 6.45426 3.67385 7.03288 4.0596 7.54721C4.7668 8.57586 5.66687 9.41164 6.75981 9.92597C7.08127 10.0546 7.33843 10.1831 7.65988 10.2474C7.98134 10.376 8.30279 10.376 8.68854 10.3117C9.13857 10.2474 9.52432 9.92597 9.78148 9.54022C9.91006 9.28306 9.91006 9.0259 9.84577 8.76873L9.58861 8.64015ZM11.1959 2.78969C8.68854 0.282344 4.63822 0.282344 2.13087 2.78969C0.0735668 4.84699 -0.312178 7.99724 1.10222 10.5046L0.202148 13.7834L3.60956 12.8833C4.57392 13.3977 5.60258 13.6548 6.63123 13.6548C10.1672 13.6548 12.996 10.826 12.996 7.29004C13.0603 5.61848 12.3531 4.01121 11.1959 2.78969ZM9.46003 11.7904C8.62425 12.3047 7.65988 12.6262 6.63123 12.6262C5.66687 12.6262 4.7668 12.369 3.93102 11.919L3.73814 11.7904L1.74513 12.3047L2.25945 10.376L2.13087 10.1831C0.587893 7.6115 1.35938 4.39696 3.86673 2.78969C6.37407 1.18242 9.58861 2.0182 11.1316 4.46125C12.6746 6.96859 11.9674 10.2474 9.46003 11.7904Z" fill="white"/>
</svg>
