<svg width="29" height="30" viewBox="0 0 29 30" fill="none" xmlns="http://www.w3.org/2000/svg">
<g clip-path="url(#clip0_392_3374)">
<path d="M0.830655 14.8264C0.82998 17.2637 1.46683 19.6436 2.67779 21.7412L0.714844 28.9083L8.0494 26.9851C10.078 28.0895 12.351 28.6682 14.6608 28.6683H14.6668C22.2918 28.6683 28.4987 22.4637 28.502 14.8373C28.5034 11.1418 27.0656 7.66682 24.4532 5.05241C21.8413 2.43822 18.3675 0.99778 14.6663 0.996094C7.04038 0.996094 0.833916 7.20042 0.830767 14.8264" fill="url(#paint0_linear_392_3374)"/>
<path d="M0.336129 14.822C0.335342 17.347 0.995016 19.812 2.24915 21.9848L0.21582 29.4087L7.81337 27.4166C9.90674 28.558 12.2637 29.1598 14.662 29.1607H14.6682C22.5667 29.1607 28.9966 22.7328 29 14.8335C29.0013 11.0052 27.5117 7.40526 24.806 4.69719C22.1 1.98946 18.502 0.49718 14.6682 0.495605C6.76826 0.495605 0.339277 6.92256 0.336129 14.822ZM4.86075 21.6106L4.57707 21.1602C3.38455 19.2641 2.75512 17.0729 2.75602 14.8229C2.75849 8.25709 8.102 2.91527 14.6727 2.91527C17.8546 2.91662 20.845 4.15704 23.0943 6.4076C25.3434 8.65838 26.581 11.6504 26.5802 14.8326C26.5772 21.3984 21.2336 26.7409 14.6682 26.7409H14.6634C12.5256 26.7398 10.429 26.1657 8.60055 25.0807L8.16541 24.8227L3.65687 26.0048L4.86075 21.6106Z" fill="#F5F5F5"/>
<path d="M11.0861 8.83265C10.8178 8.23639 10.5355 8.22435 10.2803 8.2139C10.0714 8.2049 9.83262 8.20558 9.59402 8.20558C9.35521 8.20558 8.96718 8.29542 8.6392 8.65353C8.31088 9.01198 7.38574 9.87821 7.38574 11.64C7.38574 13.4018 8.669 15.1045 8.84789 15.3437C9.027 15.5824 11.3252 19.3136 14.9651 20.7489C17.9901 21.9418 18.6057 21.7045 19.2622 21.6447C19.9189 21.5851 21.381 20.7787 21.6793 19.9425C21.9778 19.1064 21.9778 18.3898 21.8883 18.24C21.7988 18.0908 21.56 18.0012 21.2019 17.8222C20.8438 17.6432 19.0831 16.7767 18.7549 16.6572C18.4266 16.5378 18.1879 16.4782 17.9491 16.8368C17.7102 17.1948 17.0245 18.0012 16.8155 18.24C16.6067 18.4794 16.3976 18.5092 16.0396 18.3301C15.6813 18.1504 14.528 17.7727 13.1598 16.5529C12.0952 15.6037 11.3765 14.4315 11.1676 14.0729C10.9587 13.7149 11.1452 13.5209 11.3248 13.3424C11.4857 13.182 11.683 12.9243 11.8622 12.7152C12.0408 12.5061 12.1004 12.3569 12.2198 12.1181C12.3393 11.879 12.2795 11.6699 12.1901 11.4908C12.1004 11.3117 11.4045 9.54067 11.0861 8.83265Z" fill="#F5F5F5"/>
</g>
<defs>
<linearGradient id="paint0_linear_392_3374" x1="1390.07" y1="2792.21" x2="1390.07" y2="0.996094" gradientUnits="userSpaceOnUse">
<stop stop-color="#1FAF38"/>
<stop offset="1" stop-color="#60D669"/>
</linearGradient>
<clipPath id="clip0_392_3374">
<rect width="28.7841" height="29.009" fill="white" transform="translate(0.21582 0.495605)"/>
</clipPath>
</defs>
</svg>
