<svg width="42" height="43" viewBox="0 0 42 43" fill="none" xmlns="http://www.w3.org/2000/svg">
<g filter="url(#filter0_b_757_30)">
<circle cx="21" cy="21.3855" r="20.5" stroke="#292666"/>
</g>
<path d="M26.54 14.6033C26.2939 14.6033 26.0533 14.6763 25.8486 14.813C25.644 14.9498 25.4845 15.1441 25.3903 15.3715C25.2961 15.5989 25.2714 15.8491 25.3195 16.0905C25.3675 16.3319 25.486 16.5536 25.66 16.7277C25.8341 16.9017 26.0558 17.0202 26.2972 17.0683C26.5386 17.1163 26.7888 17.0916 27.0162 16.9974C27.2436 16.9033 27.438 16.7438 27.5747 16.5391C27.7114 16.3345 27.7844 16.0939 27.7844 15.8477C27.7844 15.5177 27.6533 15.2012 27.4199 14.9678C27.1866 14.7344 26.87 14.6033 26.54 14.6033ZM31.3104 17.1129C31.2902 16.2525 31.129 15.4012 30.8333 14.5929C30.5696 13.9013 30.1592 13.2751 29.6304 12.7574C29.1168 12.2258 28.4892 11.818 27.7948 11.5648C26.9887 11.26 26.1364 11.0952 25.2748 11.0774C24.1755 11.0151 23.8229 11.0151 21.0022 11.0151C18.1815 11.0151 17.8289 11.0151 16.7296 11.0774C15.868 11.0952 15.0157 11.26 14.2096 11.5648C13.5165 11.8206 12.8894 12.228 12.3741 12.7574C11.8425 13.2709 11.4347 13.8986 11.1815 14.5929C10.8767 15.399 10.7119 16.2513 10.6941 17.1129C10.6318 18.2122 10.6318 18.5648 10.6318 21.3855C10.6318 24.2062 10.6318 24.5588 10.6941 25.6581C10.7119 26.5197 10.8767 27.372 11.1815 28.1781C11.4347 28.8725 11.8425 29.5001 12.3741 30.0137C12.8894 30.543 13.5165 30.9505 14.2096 31.2062C15.0157 31.511 15.868 31.6758 16.7296 31.6937C17.8289 31.7559 18.1815 31.7559 21.0022 31.7559C23.8229 31.7559 24.1755 31.7559 25.2748 31.6937C26.1364 31.6758 26.9887 31.511 27.7948 31.2062C28.4892 30.953 29.1168 30.5452 29.6304 30.0137C30.1616 29.4978 30.5723 28.871 30.8333 28.1781C31.129 27.3698 31.2902 26.5185 31.3104 25.6581C31.3104 24.5588 31.3726 24.2062 31.3726 21.3855C31.3726 18.5648 31.3726 18.2122 31.3104 17.1129ZM29.4437 25.5337C29.4361 26.1919 29.3169 26.8442 29.0911 27.4625C28.9255 27.9139 28.6596 28.3217 28.3133 28.6551C27.977 28.9979 27.57 29.2633 27.1207 29.4329C26.5023 29.6587 25.8501 29.778 25.1918 29.7855C24.1548 29.8374 23.7711 29.8477 21.0437 29.8477C18.3163 29.8477 17.9326 29.8477 16.8955 29.7855C16.212 29.7983 15.5314 29.6931 14.8837 29.4744C14.4541 29.2961 14.0658 29.0314 13.7429 28.6966C13.3987 28.3635 13.1361 27.9553 12.9755 27.504C12.7224 26.8768 12.5819 26.2097 12.5607 25.5337C12.5607 24.4966 12.4985 24.1129 12.4985 21.3855C12.4985 18.6581 12.4985 18.2744 12.5607 17.2374C12.5654 16.5644 12.6882 15.8975 12.9237 15.267C13.1063 14.8293 13.3865 14.4391 13.7429 14.1262C14.058 13.7697 14.4474 13.4865 14.8837 13.2966C15.5158 13.0685 16.1821 12.9493 16.8541 12.944C17.8911 12.944 18.2748 12.8818 21.0022 12.8818C23.7296 12.8818 24.1133 12.8818 25.1504 12.944C25.8086 12.9516 26.4609 13.0708 27.0792 13.2966C27.5505 13.4715 27.9735 13.7559 28.3133 14.1262C28.6532 14.4448 28.9187 14.8343 29.0911 15.267C29.3216 15.8985 29.4409 16.5651 29.4437 17.2374C29.4955 18.2744 29.5059 18.6581 29.5059 21.3855C29.5059 24.1129 29.4955 24.4966 29.4437 25.5337ZM21.0022 16.0655C19.9505 16.0676 18.9229 16.3813 18.0494 16.9671C17.1759 17.5529 16.4956 18.3845 16.0946 19.3568C15.6935 20.3291 15.5896 21.3984 15.7961 22.4297C16.0025 23.461 16.51 24.408 17.2544 25.151C17.9989 25.8939 18.9468 26.3996 19.9785 26.604C21.0102 26.8085 22.0793 26.7025 23.0508 26.2995C24.0223 25.8966 24.8526 25.2147 25.4367 24.3401C26.0208 23.4654 26.3326 22.4373 26.3326 21.3855C26.334 20.6856 26.1969 19.9924 25.9294 19.3456C25.6619 18.6989 25.2692 18.1114 24.7738 17.617C24.2784 17.1226 23.6902 16.731 23.0429 16.4647C22.3956 16.1984 21.7021 16.0628 21.0022 16.0655ZM21.0022 24.8388C20.3192 24.8388 19.6515 24.6363 19.0836 24.2569C18.5157 23.8774 18.0731 23.3381 17.8117 22.707C17.5504 22.076 17.482 21.3817 17.6152 20.7118C17.7485 20.0419 18.0774 19.4266 18.5603 18.9436C19.0433 18.4607 19.6586 18.1318 20.3285 17.9985C20.9984 17.8653 21.6927 17.9337 22.3237 18.195C22.9548 18.4564 23.4941 18.899 23.8735 19.4669C24.253 20.0348 24.4555 20.7025 24.4555 21.3855C24.4555 21.839 24.3662 22.2881 24.1927 22.707C24.0191 23.126 23.7648 23.5067 23.4441 23.8274C23.1234 24.1481 22.7427 24.4024 22.3237 24.576C21.9048 24.7495 21.4557 24.8388 21.0022 24.8388Z" fill="#292666"/>
<defs>
<filter id="filter0_b_757_30" x="-20" y="-19.6145" width="82" height="82" filterUnits="userSpaceOnUse" color-interpolation-filters="sRGB">
<feFlood flood-opacity="0" result="BackgroundImageFix"/>
<feGaussianBlur in="BackgroundImageFix" stdDeviation="10"/>
<feComposite in2="SourceAlpha" operator="in" result="effect1_backgroundBlur_757_30"/>
<feBlend mode="normal" in="SourceGraphic" in2="effect1_backgroundBlur_757_30" result="shape"/>
</filter>
</defs>
</svg>
