<svg width="42" height="43" viewBox="0 0 42 43" fill="none" xmlns="http://www.w3.org/2000/svg">
<g filter="url(#filter0_b_775_42)">
<circle cx="21" cy="21.3855" r="20.5" stroke="#292666"/>
</g>
<path fill-rule="evenodd" clip-rule="evenodd" d="M14.1403 10.8506C13.4256 10.8506 12.7401 11.1345 12.2347 11.6399C11.7292 12.1453 11.4453 12.8308 11.4453 13.5456C11.4453 14.2603 11.7292 14.9458 12.2347 15.4512C12.7401 15.9566 13.4256 16.2406 14.1403 16.2406C14.8551 16.2406 15.5406 15.9566 16.046 15.4512C16.5514 14.9458 16.8353 14.2603 16.8353 13.5456C16.8353 12.8308 16.5514 12.1453 16.046 11.6399C15.5406 11.1345 14.8551 10.8506 14.1403 10.8506ZM12.9153 13.5456C12.9153 13.2207 13.0444 12.9091 13.2741 12.6794C13.5038 12.4496 13.8154 12.3206 14.1403 12.3206C14.4652 12.3206 14.7768 12.4496 15.0065 12.6794C15.2362 12.9091 15.3653 13.2207 15.3653 13.5456C15.3653 13.8705 15.2362 14.1821 15.0065 14.4118C14.7768 14.6415 14.4652 14.7706 14.1403 14.7706C13.8154 14.7706 13.5038 14.6415 13.2741 14.4118C13.0444 14.1821 12.9153 13.8705 12.9153 13.5456ZM11.4453 17.4656C11.4453 17.2707 11.5227 17.0837 11.6606 16.9459C11.7984 16.808 11.9854 16.7306 12.1803 16.7306H16.1003C16.2952 16.7306 16.4822 16.808 16.62 16.9459C16.7579 17.0837 16.8353 17.2707 16.8353 17.4656V30.2056C16.8353 30.4005 16.7579 30.5875 16.62 30.7253C16.4822 30.8631 16.2952 30.9406 16.1003 30.9406H12.1803C11.9854 30.9406 11.7984 30.8631 11.6606 30.7253C11.5227 30.5875 11.4453 30.4005 11.4453 30.2056V17.4656ZM12.9153 18.2006V29.4706H15.3653V18.2006H12.9153ZM18.3053 17.4656C18.3053 17.2707 18.3827 17.0837 18.5206 16.9459C18.6584 16.808 18.8454 16.7306 19.0403 16.7306H22.9603C23.1552 16.7306 23.3422 16.808 23.48 16.9459C23.6179 17.0837 23.6953 17.2707 23.6953 17.4656V17.8909L24.1216 17.7076C24.8567 17.3937 25.6364 17.1969 26.4325 17.1245C29.152 16.8776 31.5353 19.014 31.5353 21.758V30.2056C31.5353 30.4005 31.4579 30.5875 31.32 30.7253C31.1822 30.8631 30.9952 30.9406 30.8003 30.9406H26.8803C26.6854 30.9406 26.4984 30.8631 26.3606 30.7253C26.2227 30.5875 26.1453 30.4005 26.1453 30.2056V23.3456C26.1453 23.0207 26.0162 22.7091 25.7865 22.4794C25.5568 22.2496 25.2452 22.1206 24.9203 22.1206C24.5954 22.1206 24.2838 22.2496 24.0541 22.4794C23.8244 22.7091 23.6953 23.0207 23.6953 23.3456V30.2056C23.6953 30.4005 23.6179 30.5875 23.48 30.7253C23.3422 30.8631 23.1552 30.9406 22.9603 30.9406H19.0403C18.8454 30.9406 18.6584 30.8631 18.5206 30.7253C18.3827 30.5875 18.3053 30.4005 18.3053 30.2056V17.4656ZM19.7753 18.2006V29.4706H22.2253V23.3456C22.2253 22.6308 22.5092 21.9453 23.0147 21.4399C23.5201 20.9345 24.2056 20.6506 24.9203 20.6506C25.6351 20.6506 26.3206 20.9345 26.826 21.4399C27.3314 21.9453 27.6153 22.6308 27.6153 23.3456V29.4706H30.0653V21.758C30.0653 19.8921 28.4375 18.4181 26.5667 18.5887C25.924 18.647 25.2944 18.8057 24.7008 19.0591L23.2504 19.6814C23.1385 19.7294 23.0165 19.7489 22.8952 19.7381C22.7739 19.7274 22.6572 19.6866 22.5556 19.6196C22.454 19.5525 22.3706 19.4613 22.3129 19.354C22.2553 19.2468 22.2252 19.1269 22.2253 19.0052V18.2006H19.7753Z" fill="#292666"/>
<defs>
<filter id="filter0_b_775_42" x="-20" y="-19.6145" width="82" height="82" filterUnits="userSpaceOnUse" color-interpolation-filters="sRGB">
<feFlood flood-opacity="0" result="BackgroundImageFix"/>
<feGaussianBlur in="BackgroundImageFix" stdDeviation="10"/>
<feComposite in2="SourceAlpha" operator="in" result="effect1_backgroundBlur_775_42"/>
<feBlend mode="normal" in="SourceGraphic" in2="effect1_backgroundBlur_775_42" result="shape"/>
</filter>
</defs>
</svg>
