<svg width="42" height="43" viewBox="0 0 42 43" fill="none" xmlns="http://www.w3.org/2000/svg">
<g filter="url(#filter0_b_757_34)">
<circle cx="21" cy="21.3855" r="20.5" stroke="#292666"/>
</g>
<path d="M31.6599 18.9849L31.6594 18.9978V19.0108C31.6594 19.6589 31.6588 23.12 31.6198 23.6655L31.6176 23.6965L31.618 23.7276C31.6308 24.8426 31.4611 25.9522 31.1156 27.0125L31.1145 27.0158C31.0259 27.292 30.8731 27.5431 30.6686 27.7487C30.3515 28.0576 29.9499 28.2653 29.515 28.3458C25.7953 28.6315 22.6443 28.6827 19.0423 28.6312L19.029 28.631L19.0156 28.6313C16.8076 28.6785 14.5991 28.567 12.407 28.2976C11.986 28.2151 11.598 28.0122 11.2901 27.7134C11.0225 27.4075 10.8333 27.041 10.7389 26.6455L10.7371 26.638L10.7352 26.6305C10.5717 26.0035 10.4753 25.3609 10.4476 24.7135L10.4472 24.7044L10.4466 24.6953C10.2985 22.4933 10.2984 20.2839 10.4462 18.0819C10.4476 18.065 10.449 18.0482 10.4504 18.0314C10.5019 17.413 10.5514 16.8176 10.6858 16.2723C10.8228 15.7162 11.0308 15.2913 11.3475 14.9992L11.3475 14.9992L11.3548 14.9923C11.6609 14.7024 12.0429 14.5055 12.4562 14.4242C15.2931 14.1718 18.1414 14.07 20.9891 14.1192L21.0017 14.1194L21.0143 14.1192C23.8728 14.0722 26.7317 14.1774 29.5789 14.4345C30.0648 14.5293 30.5063 14.7797 30.8368 15.1471C31.4228 16.3387 31.7057 17.6569 31.6599 18.9849ZM17.9083 24.3411V25.5997L19.0152 25.0008C20.0492 24.4413 21.1136 23.9006 22.1402 23.3791L22.2271 23.335C23.2756 22.8023 24.2864 22.2879 25.1611 21.8031L26.3766 21.1294L25.1464 20.4831L19.0071 17.2579L17.9083 16.6807V17.9219V24.3411Z" stroke="#292666" stroke-width="1.5"/>
<defs>
<filter id="filter0_b_757_34" x="-20" y="-19.6145" width="82" height="82" filterUnits="userSpaceOnUse" color-interpolation-filters="sRGB">
<feFlood flood-opacity="0" result="BackgroundImageFix"/>
<feGaussianBlur in="BackgroundImageFix" stdDeviation="10"/>
<feComposite in2="SourceAlpha" operator="in" result="effect1_backgroundBlur_757_34"/>
<feBlend mode="normal" in="SourceGraphic" in2="effect1_backgroundBlur_757_34" result="shape"/>
</filter>
</defs>
</svg>
